<svg width="1024" height="753" viewBox="0 0 1024 753" fill="none" xmlns="http://www.w3.org/2000/svg">
<g opacity="0.2" filter="url(#filter0_f_175_198)">
<ellipse cx="521.5" cy="160" rx="670.5" ry="350" fill="#338AF3"/>
</g>
<path d="M42.0349 396C43.5302 396 44.6622 396.63 45.4308 397.891C46.2134 399.138 46.6047 400.953 46.6047 403.336C46.6047 405.719 46.2134 407.541 45.4308 408.802C44.6622 410.063 43.5302 410.693 42.0349 410.693C40.5536 410.693 39.4216 410.063 38.639 408.802C37.8564 407.541 37.4651 405.719 37.4651 403.336C37.4651 400.967 37.8564 399.152 38.639 397.891C39.4216 396.63 40.5536 396 42.0349 396ZM38.9534 403.336C38.9534 405.026 39.1072 406.35 39.4146 407.306L44.0683 398.099C43.5791 397.448 42.9013 397.122 42.0349 397.122C41.0706 397.122 40.316 397.635 39.771 398.66C39.2259 399.672 38.9534 401.23 38.9534 403.336ZM42.0349 409.55C43.0131 409.55 43.7748 409.044 44.3198 408.033C44.8648 407.008 45.1373 405.442 45.1373 403.336C45.1373 401.549 44.9627 400.163 44.6133 399.18L39.9596 408.469C40.4627 409.19 41.1545 409.55 42.0349 409.55Z" fill="url(#paint0_linear_175_198)" fill-opacity="0.6"/>
<path d="M43.2926 433.135H46.3741V434.236H38.3874V433.135H41.9511V421.455L38.5551 423.471L37.9682 422.536L42.1607 419.959H43.2926V433.135Z" fill="url(#paint1_linear_175_198)" fill-opacity="0.6"/>
<path d="M42.0349 443.502C43.5302 443.502 44.6622 444.133 45.4308 445.393C46.2134 446.64 46.6047 448.455 46.6047 450.838C46.6047 453.221 46.2134 455.043 45.4308 456.304C44.6622 457.565 43.5302 458.195 42.0349 458.195C40.5536 458.195 39.4216 457.565 38.639 456.304C37.8564 455.043 37.4651 453.221 37.4651 450.838C37.4651 448.469 37.8564 446.654 38.639 445.393C39.4216 444.133 40.5536 443.502 42.0349 443.502ZM38.9534 450.838C38.9534 452.529 39.1072 453.852 39.4146 454.808L44.0683 445.601C43.5791 444.95 42.9013 444.624 42.0349 444.624C41.0706 444.624 40.316 445.137 39.771 446.162C39.2259 447.174 38.9534 448.732 38.9534 450.838ZM42.0349 457.052C43.0131 457.052 43.7748 456.546 44.3198 455.535C44.8648 454.51 45.1373 452.944 45.1373 450.838C45.1373 449.051 44.9627 447.665 44.6133 446.682L39.9596 455.971C40.4627 456.692 41.1545 457.052 42.0349 457.052Z" fill="url(#paint2_linear_175_198)" fill-opacity="0.6"/>
<path d="M43.2926 480.637H46.3741V481.738H38.3874V480.637H41.9511V468.957L38.5551 470.973L37.9682 470.038L42.1607 467.461H43.2926V480.637Z" fill="url(#paint3_linear_175_198)" fill-opacity="0.6"/>
<path d="M43.2926 504.388H46.3741V505.489H38.3874V504.388H41.9511V492.708L38.5551 494.724L37.9682 493.789L42.1607 491.212H43.2926V504.388Z" fill="url(#paint4_linear_175_198)" fill-opacity="0.6"/>
<path d="M42.0349 514.755C43.5302 514.755 44.6622 515.386 45.4308 516.646C46.2134 517.893 46.6047 519.708 46.6047 522.091C46.6047 524.474 46.2134 526.296 45.4308 527.557C44.6622 528.818 43.5302 529.448 42.0349 529.448C40.5536 529.448 39.4216 528.818 38.639 527.557C37.8564 526.296 37.4651 524.474 37.4651 522.091C37.4651 519.722 37.8564 517.907 38.639 516.646C39.4216 515.386 40.5536 514.755 42.0349 514.755ZM38.9534 522.091C38.9534 523.782 39.1072 525.105 39.4146 526.061L44.0683 516.854C43.5791 516.203 42.9013 515.878 42.0349 515.878C41.0706 515.878 40.316 516.39 39.771 517.415C39.2259 518.427 38.9534 519.985 38.9534 522.091ZM42.0349 528.305C43.0131 528.305 43.7748 527.8 44.3198 526.788C44.8648 525.763 45.1373 524.197 45.1373 522.091C45.1373 520.304 44.9627 518.919 44.6133 517.935L39.9596 527.225C40.4627 527.945 41.1545 528.305 42.0349 528.305Z" fill="url(#paint5_linear_175_198)" fill-opacity="0.6"/>
<path d="M43.2926 551.89H46.3741V552.992H38.3874V551.89H41.9511V540.21L38.5551 542.226L37.9682 541.291L42.1607 538.714H43.2926V551.89Z" fill="url(#paint6_linear_175_198)" fill-opacity="0.6"/>
<path d="M42.0349 562.257C43.5302 562.257 44.6622 562.888 45.4308 564.149C46.2134 565.396 46.6047 567.211 46.6047 569.594C46.6047 571.977 46.2134 573.798 45.4308 575.059C44.6622 576.32 43.5302 576.95 42.0349 576.95C40.5536 576.95 39.4216 576.32 38.639 575.059C37.8564 573.798 37.4651 571.977 37.4651 569.594C37.4651 567.224 37.8564 565.409 38.639 564.149C39.4216 562.888 40.5536 562.257 42.0349 562.257ZM38.9534 569.594C38.9534 571.284 39.1072 572.607 39.4146 573.563L44.0683 564.356C43.5791 563.705 42.9013 563.38 42.0349 563.38C41.0706 563.38 40.316 563.892 39.771 564.918C39.2259 565.929 38.9534 567.488 38.9534 569.594ZM42.0349 575.807C43.0131 575.807 43.7748 575.302 44.3198 574.29C44.8648 573.265 45.1373 571.699 45.1373 569.594C45.1373 567.806 44.9627 566.421 44.6133 565.437L39.9596 574.727C40.4627 575.447 41.1545 575.807 42.0349 575.807Z" fill="url(#paint7_linear_175_198)" fill-opacity="0.6"/>
<path d="M42.0349 586.008C43.5302 586.008 44.6622 586.639 45.4308 587.9C46.2134 589.147 46.6047 590.962 46.6047 593.345C46.6047 595.728 46.2134 597.549 45.4308 598.81C44.6622 600.071 43.5302 600.701 42.0349 600.701C40.5536 600.701 39.4216 600.071 38.639 598.81C37.8564 597.549 37.4651 595.728 37.4651 593.345C37.4651 590.975 37.8564 589.16 38.639 587.9C39.4216 586.639 40.5536 586.008 42.0349 586.008ZM38.9534 593.345C38.9534 595.035 39.1072 596.358 39.4146 597.314L44.0683 588.107C43.5791 587.456 42.9013 587.131 42.0349 587.131C41.0706 587.131 40.316 587.643 39.771 588.669C39.2259 589.68 38.9534 591.239 38.9534 593.345ZM42.0349 599.558C43.0131 599.558 43.7748 599.053 44.3198 598.041C44.8648 597.016 45.1373 595.451 45.1373 593.345C45.1373 591.557 44.9627 590.172 44.6133 589.188L39.9596 598.478C40.4627 599.198 41.1545 599.558 42.0349 599.558Z" fill="url(#paint8_linear_175_198)" fill-opacity="0.6"/>
<path d="M43.2926 623.143H46.3741V624.245H38.3874V623.143H41.9511V611.464L38.5551 613.48L37.9682 612.544L42.1607 609.967H43.2926V623.143Z" fill="url(#paint9_linear_175_198)" fill-opacity="0.6"/>
<path d="M42.0349 633.511C43.5302 633.511 44.6622 634.141 45.4308 635.402C46.2134 636.649 46.6047 638.464 46.6047 640.847C46.6047 643.23 46.2134 645.052 45.4308 646.312C44.6622 647.573 43.5302 648.204 42.0349 648.204C40.5536 648.204 39.4216 647.573 38.639 646.312C37.8564 645.052 37.4651 643.23 37.4651 640.847C37.4651 638.478 37.8564 636.663 38.639 635.402C39.4216 634.141 40.5536 633.511 42.0349 633.511ZM38.9534 640.847C38.9534 642.537 39.1072 643.86 39.4146 644.816L44.0683 635.61C43.5791 634.958 42.9013 634.633 42.0349 634.633C41.0706 634.633 40.316 635.145 39.771 636.171C39.2259 637.182 38.9534 638.741 38.9534 640.847ZM42.0349 647.061C43.0131 647.061 43.7748 646.555 44.3198 645.543C44.8648 644.518 45.1373 642.953 45.1373 640.847C45.1373 639.059 44.9627 637.674 44.6133 636.69L39.9596 645.98C40.4627 646.7 41.1545 647.061 42.0349 647.061Z" fill="url(#paint10_linear_175_198)" fill-opacity="0.6"/>
<path d="M43.2926 670.645H46.3741V671.747H38.3874V670.645H41.9511V658.966L38.5551 660.982L37.9682 660.046L42.1607 657.469H43.2926V670.645Z" fill="url(#paint11_linear_175_198)" fill-opacity="0.6"/>
<path d="M43.2926 694.396H46.3741V695.498H38.3874V694.396H41.9511V682.717L38.5551 684.733L37.9682 683.798L42.1607 681.221H43.2926V694.396Z" fill="url(#paint12_linear_175_198)" fill-opacity="0.6"/>
<path d="M80.9651 443.502C82.4604 443.502 83.5924 444.133 84.361 445.393C85.1436 446.64 85.5349 448.455 85.5349 450.838C85.5349 453.221 85.1436 455.043 84.361 456.304C83.5924 457.565 82.4604 458.195 80.9651 458.195C79.4838 458.195 78.3518 457.565 77.5692 456.304C76.7866 455.043 76.3953 453.221 76.3953 450.838C76.3953 448.469 76.7866 446.654 77.5692 445.393C78.3518 444.133 79.4838 443.502 80.9651 443.502ZM77.8836 450.838C77.8836 452.529 78.0374 453.852 78.3448 454.808L82.9985 445.601C82.5093 444.95 81.8315 444.624 80.9651 444.624C80.0008 444.624 79.2462 445.137 78.7012 446.162C78.1561 447.174 77.8836 448.732 77.8836 450.838ZM80.9651 457.052C81.9433 457.052 82.705 456.546 83.25 455.535C83.795 454.51 84.0675 452.944 84.0675 450.838C84.0675 449.051 83.8928 447.665 83.5435 446.682L78.8898 455.971C79.3929 456.692 80.0847 457.052 80.9651 457.052Z" fill="url(#paint13_linear_175_198)" fill-opacity="0.6"/>
<path d="M82.2228 480.637H85.3043V481.738H77.3176V480.637H80.8812V468.957L77.4853 470.973L76.8984 470.038L81.0909 467.461H82.2228V480.637Z" fill="url(#paint14_linear_175_198)" fill-opacity="0.6"/>
<path d="M80.9651 491.004C82.4604 491.004 83.5924 491.635 84.361 492.895C85.1436 494.142 85.5349 495.957 85.5349 498.34C85.5349 500.723 85.1436 502.545 84.361 503.806C83.5924 505.067 82.4604 505.697 80.9651 505.697C79.4838 505.697 78.3518 505.067 77.5692 503.806C76.7866 502.545 76.3953 500.723 76.3953 498.34C76.3953 495.971 76.7866 494.156 77.5692 492.895C78.3518 491.635 79.4838 491.004 80.9651 491.004ZM77.8836 498.34C77.8836 500.031 78.0374 501.354 78.3448 502.31L82.9985 493.103C82.5093 492.452 81.8315 492.126 80.9651 492.126C80.0008 492.126 79.2462 492.639 78.7012 493.664C78.1561 494.676 77.8836 496.234 77.8836 498.34ZM80.9651 504.554C81.9433 504.554 82.705 504.049 83.25 503.037C83.795 502.012 84.0675 500.446 84.0675 498.34C84.0675 496.553 83.8928 495.168 83.5435 494.184L78.8898 503.474C79.3929 504.194 80.0847 504.554 80.9651 504.554Z" fill="url(#paint15_linear_175_198)" fill-opacity="0.6"/>
<path d="M80.9651 514.755C82.4604 514.755 83.5924 515.386 84.361 516.646C85.1436 517.893 85.5349 519.708 85.5349 522.091C85.5349 524.474 85.1436 526.296 84.361 527.557C83.5924 528.818 82.4604 529.448 80.9651 529.448C79.4838 529.448 78.3518 528.818 77.5692 527.557C76.7866 526.296 76.3953 524.474 76.3953 522.091C76.3953 519.722 76.7866 517.907 77.5692 516.646C78.3518 515.386 79.4838 514.755 80.9651 514.755ZM77.8836 522.091C77.8836 523.782 78.0374 525.105 78.3448 526.061L82.9985 516.854C82.5093 516.203 81.8315 515.878 80.9651 515.878C80.0008 515.878 79.2462 516.39 78.7012 517.415C78.1561 518.427 77.8836 519.985 77.8836 522.091ZM80.9651 528.305C81.9433 528.305 82.705 527.8 83.25 526.788C83.795 525.763 84.0675 524.197 84.0675 522.091C84.0675 520.304 83.8928 518.919 83.5435 517.935L78.8898 527.225C79.3929 527.945 80.0847 528.305 80.9651 528.305Z" fill="url(#paint16_linear_175_198)" fill-opacity="0.6"/>
<path d="M82.2228 551.89H85.3043V552.992H77.3176V551.89H80.8812V540.21L77.4853 542.226L76.8984 541.291L81.0909 538.714H82.2228V551.89Z" fill="url(#paint17_linear_175_198)" fill-opacity="0.6"/>
<path d="M80.9651 562.257C82.4604 562.257 83.5924 562.888 84.361 564.149C85.1436 565.396 85.5349 567.211 85.5349 569.594C85.5349 571.977 85.1436 573.798 84.361 575.059C83.5924 576.32 82.4604 576.95 80.9651 576.95C79.4838 576.95 78.3518 576.32 77.5692 575.059C76.7866 573.798 76.3953 571.977 76.3953 569.594C76.3953 567.224 76.7866 565.409 77.5692 564.149C78.3518 562.888 79.4838 562.257 80.9651 562.257ZM77.8836 569.594C77.8836 571.284 78.0374 572.607 78.3448 573.563L82.9985 564.356C82.5093 563.705 81.8315 563.38 80.9651 563.38C80.0008 563.38 79.2462 563.892 78.7012 564.918C78.1561 565.929 77.8836 567.488 77.8836 569.594ZM80.9651 575.807C81.9433 575.807 82.705 575.302 83.25 574.29C83.795 573.265 84.0675 571.699 84.0675 569.594C84.0675 567.806 83.8928 566.421 83.5435 565.437L78.8898 574.727C79.3929 575.447 80.0847 575.807 80.9651 575.807Z" fill="url(#paint18_linear_175_198)" fill-opacity="0.6"/>
<path d="M82.2228 599.392H85.3043V600.494H77.3176V599.392H80.8812V587.713L77.4853 589.728L76.8984 588.793L81.0909 586.216H82.2228V599.392Z" fill="url(#paint19_linear_175_198)" fill-opacity="0.6"/>
<path d="M80.9651 609.76C82.4604 609.76 83.5924 610.39 84.361 611.651C85.1436 612.898 85.5349 614.713 85.5349 617.096C85.5349 619.479 85.1436 621.301 84.361 622.561C83.5924 623.822 82.4604 624.453 80.9651 624.453C79.4838 624.453 78.3518 623.822 77.5692 622.561C76.7866 621.301 76.3953 619.479 76.3953 617.096C76.3953 614.726 76.7866 612.911 77.5692 611.651C78.3518 610.39 79.4838 609.76 80.9651 609.76ZM77.8836 617.096C77.8836 618.786 78.0374 620.109 78.3448 621.065L82.9985 611.859C82.5093 611.207 81.8315 610.882 80.9651 610.882C80.0008 610.882 79.2462 611.394 78.7012 612.42C78.1561 613.431 77.8836 614.99 77.8836 617.096ZM80.9651 623.31C81.9433 623.31 82.705 622.804 83.25 621.792C83.795 620.767 84.0675 619.202 84.0675 617.096C84.0675 615.308 83.8928 613.923 83.5435 612.939L78.8898 622.229C79.3929 622.949 80.0847 623.31 80.9651 623.31Z" fill="url(#paint20_linear_175_198)" fill-opacity="0.6"/>
<path d="M80.9651 633.511C82.4604 633.511 83.5924 634.141 84.361 635.402C85.1436 636.649 85.5349 638.464 85.5349 640.847C85.5349 643.23 85.1436 645.052 84.361 646.312C83.5924 647.573 82.4604 648.204 80.9651 648.204C79.4838 648.204 78.3518 647.573 77.5692 646.312C76.7866 645.052 76.3953 643.23 76.3953 640.847C76.3953 638.478 76.7866 636.663 77.5692 635.402C78.3518 634.141 79.4838 633.511 80.9651 633.511ZM77.8836 640.847C77.8836 642.537 78.0374 643.86 78.3448 644.816L82.9985 635.61C82.5093 634.958 81.8315 634.633 80.9651 634.633C80.0008 634.633 79.2462 635.145 78.7012 636.171C78.1561 637.182 77.8836 638.741 77.8836 640.847ZM80.9651 647.061C81.9433 647.061 82.705 646.555 83.25 645.543C83.795 644.518 84.0675 642.953 84.0675 640.847C84.0675 639.059 83.8928 637.674 83.5435 636.69L78.8898 645.98C79.3929 646.7 80.0847 647.061 80.9651 647.061Z" fill="url(#paint21_linear_175_198)" fill-opacity="0.6"/>
<path d="M82.2228 670.645H85.3043V671.747H77.3176V670.645H80.8812V658.966L77.4853 660.982L76.8984 660.046L81.0909 657.469H82.2228V670.645Z" fill="url(#paint22_linear_175_198)" fill-opacity="0.6"/>
<path d="M80.9651 681.013C82.4604 681.013 83.5924 681.643 84.361 682.904C85.1436 684.151 85.5349 685.966 85.5349 688.349C85.5349 690.732 85.1436 692.554 84.361 693.815C83.5924 695.075 82.4604 695.706 80.9651 695.706C79.4838 695.706 78.3518 695.075 77.5692 693.815C76.7866 692.554 76.3953 690.732 76.3953 688.349C76.3953 685.98 76.7866 684.165 77.5692 682.904C78.3518 681.643 79.4838 681.013 80.9651 681.013ZM77.8836 688.349C77.8836 690.039 78.0374 691.362 78.3448 692.318L82.9985 683.112C82.5093 682.461 81.8315 682.135 80.9651 682.135C80.0008 682.135 79.2462 682.648 78.7012 683.673C78.1561 684.684 77.8836 686.243 77.8836 688.349ZM80.9651 694.563C81.9433 694.563 82.705 694.057 83.25 693.046C83.795 692.02 84.0675 690.455 84.0675 688.349C84.0675 686.562 83.8928 685.176 83.5435 684.192L78.8898 693.482C79.3929 694.202 80.0847 694.563 80.9651 694.563Z" fill="url(#paint23_linear_175_198)" fill-opacity="0.6"/>
<path d="M82.2228 718.148H85.3043V719.249H77.3176V718.148H80.8812V706.468L77.4853 708.484L76.8984 707.549L81.0909 704.972H82.2228V718.148Z" fill="url(#paint24_linear_175_198)" fill-opacity="0.6"/>
<path d="M82.2228 741.899H85.3043V743H77.3176V741.899H80.8812V730.219L77.4853 732.235L76.8984 731.3L81.0909 728.723H82.2228V741.899Z" fill="url(#paint25_linear_175_198)" fill-opacity="0.6"/>
<path d="M22.5698 467.253C24.0651 467.253 25.1971 467.884 25.9657 469.144C26.7483 470.391 27.1396 472.206 27.1396 474.589C27.1396 476.972 26.7483 478.794 25.9657 480.055C25.1971 481.316 24.0651 481.946 22.5698 481.946C21.0885 481.946 19.9565 481.316 19.1739 480.055C18.3913 478.794 18 476.972 18 474.589C18 472.22 18.3913 470.405 19.1739 469.144C19.9565 467.884 21.0885 467.253 22.5698 467.253ZM19.4883 474.589C19.4883 476.28 19.6421 477.603 19.9495 478.559L24.6032 469.352C24.114 468.701 23.4363 468.375 22.5698 468.375C21.6055 468.375 20.8509 468.888 20.3059 469.913C19.7608 470.925 19.4883 472.483 19.4883 474.589ZM22.5698 480.803C23.5481 480.803 24.3097 480.297 24.8547 479.286C25.3997 478.261 25.6722 476.695 25.6722 474.589C25.6722 472.802 25.4976 471.417 25.1482 470.433L20.4945 479.722C20.9976 480.443 21.6894 480.803 22.5698 480.803Z" fill="url(#paint26_linear_175_198)" fill-opacity="0.6"/>
<path d="M22.5698 491.004C24.0651 491.004 25.1971 491.635 25.9657 492.895C26.7483 494.142 27.1396 495.957 27.1396 498.34C27.1396 500.723 26.7483 502.545 25.9657 503.806C25.1971 505.067 24.0651 505.697 22.5698 505.697C21.0885 505.697 19.9565 505.067 19.1739 503.806C18.3913 502.545 18 500.723 18 498.34C18 495.971 18.3913 494.156 19.1739 492.895C19.9565 491.635 21.0885 491.004 22.5698 491.004ZM19.4883 498.34C19.4883 500.031 19.6421 501.354 19.9495 502.31L24.6032 493.103C24.114 492.452 23.4363 492.126 22.5698 492.126C21.6055 492.126 20.8509 492.639 20.3059 493.664C19.7608 494.676 19.4883 496.234 19.4883 498.34ZM22.5698 504.554C23.5481 504.554 24.3097 504.049 24.8547 503.037C25.3997 502.012 25.6722 500.446 25.6722 498.34C25.6722 496.553 25.4976 495.168 25.1482 494.184L20.4945 503.474C20.9976 504.194 21.6894 504.554 22.5698 504.554Z" fill="url(#paint27_linear_175_198)" fill-opacity="0.6"/>
<path d="M23.8276 528.139H26.909V529.24H18.9223V528.139H22.486V516.459L19.09 518.475L18.5031 517.54L22.6956 514.963H23.8276V528.139Z" fill="url(#paint28_linear_175_198)" fill-opacity="0.6"/>
<path d="M22.5698 538.506C24.0651 538.506 25.1971 539.137 25.9657 540.398C26.7483 541.644 27.1396 543.459 27.1396 545.842C27.1396 548.225 26.7483 550.047 25.9657 551.308C25.1971 552.569 24.0651 553.199 22.5698 553.199C21.0885 553.199 19.9565 552.569 19.1739 551.308C18.3913 550.047 18 548.225 18 545.842C18 543.473 18.3913 541.658 19.1739 540.398C19.9565 539.137 21.0885 538.506 22.5698 538.506ZM19.4883 545.842C19.4883 547.533 19.6421 548.856 19.9495 549.812L24.6032 540.605C24.114 539.954 23.4363 539.629 22.5698 539.629C21.6055 539.629 20.8509 540.141 20.3059 541.166C19.7608 542.178 19.4883 543.737 19.4883 545.842ZM22.5698 552.056C23.5481 552.056 24.3097 551.551 24.8547 550.539C25.3997 549.514 25.6722 547.948 25.6722 545.842C25.6722 544.055 25.4976 542.67 25.1482 541.686L20.4945 550.976C20.9976 551.696 21.6894 552.056 22.5698 552.056Z" fill="url(#paint29_linear_175_198)" fill-opacity="0.6"/>
<path d="M23.8276 575.641H26.909V576.743H18.9223V575.641H22.486V563.962L19.09 565.977L18.5031 565.042L22.6956 562.465H23.8276V575.641Z" fill="url(#paint30_linear_175_198)" fill-opacity="0.6"/>
<path d="M23.8276 599.392H26.909V600.494H18.9223V599.392H22.486V587.713L19.09 589.728L18.5031 588.793L22.6956 586.216H23.8276V599.392Z" fill="url(#paint31_linear_175_198)" fill-opacity="0.6"/>
<path d="M62.7577 433.135H65.8392V434.236H57.8525V433.135H61.4162V421.455L58.0202 423.471L57.4333 422.536L61.6258 419.959H62.7577V433.135Z" fill="url(#paint32_linear_175_198)" fill-opacity="0.6"/>
<path d="M61.5 443.502C62.9953 443.502 64.1273 444.133 64.8959 445.393C65.6785 446.64 66.0698 448.455 66.0698 450.838C66.0698 453.221 65.6785 455.043 64.8959 456.304C64.1273 457.565 62.9953 458.195 61.5 458.195C60.0187 458.195 58.8867 457.565 58.1041 456.304C57.3215 455.043 56.9302 453.221 56.9302 450.838C56.9302 448.469 57.3215 446.654 58.1041 445.393C58.8867 444.133 60.0187 443.502 61.5 443.502ZM58.4185 450.838C58.4185 452.529 58.5723 453.852 58.8797 454.808L63.5334 445.601C63.0442 444.95 62.3664 444.624 61.5 444.624C60.5357 444.624 59.7811 445.137 59.2361 446.162C58.691 447.174 58.4185 448.732 58.4185 450.838ZM61.5 457.052C62.4782 457.052 63.2399 456.546 63.7849 455.535C64.3299 454.51 64.6024 452.944 64.6024 450.838C64.6024 449.051 64.4277 447.665 64.0784 446.682L59.4247 455.971C59.9278 456.692 60.6196 457.052 61.5 457.052Z" fill="url(#paint33_linear_175_198)" fill-opacity="0.6"/>
<path d="M62.7577 480.637H65.8392V481.738H57.8525V480.637H61.4162V468.957L58.0202 470.973L57.4333 470.038L61.6258 467.461H62.7577V480.637Z" fill="url(#paint34_linear_175_198)" fill-opacity="0.6"/>
<path d="M62.7577 504.388H65.8392V505.489H57.8525V504.388H61.4162V492.708L58.0202 494.724L57.4333 493.789L61.6258 491.212H62.7577V504.388Z" fill="url(#paint35_linear_175_198)" fill-opacity="0.6"/>
<path d="M61.5 514.755C62.9953 514.755 64.1273 515.386 64.8959 516.646C65.6785 517.893 66.0698 519.708 66.0698 522.091C66.0698 524.474 65.6785 526.296 64.8959 527.557C64.1273 528.818 62.9953 529.448 61.5 529.448C60.0187 529.448 58.8867 528.818 58.1041 527.557C57.3215 526.296 56.9302 524.474 56.9302 522.091C56.9302 519.722 57.3215 517.907 58.1041 516.646C58.8867 515.386 60.0187 514.755 61.5 514.755ZM58.4185 522.091C58.4185 523.782 58.5723 525.105 58.8797 526.061L63.5334 516.854C63.0442 516.203 62.3664 515.878 61.5 515.878C60.5357 515.878 59.7811 516.39 59.2361 517.415C58.691 518.427 58.4185 519.985 58.4185 522.091ZM61.5 528.305C62.4782 528.305 63.2399 527.8 63.7849 526.788C64.3299 525.763 64.6024 524.197 64.6024 522.091C64.6024 520.304 64.4277 518.919 64.0784 517.935L59.4247 527.225C59.9278 527.945 60.6196 528.305 61.5 528.305Z" fill="url(#paint36_linear_175_198)" fill-opacity="0.6"/>
<path d="M62.7577 551.89H65.8392V552.992H57.8525V551.89H61.4162V540.21L58.0202 542.226L57.4333 541.291L61.6258 538.714H62.7577V551.89Z" fill="url(#paint37_linear_175_198)" fill-opacity="0.6"/>
<path d="M62.7577 575.641H65.8392V576.743H57.8525V575.641H61.4162V563.962L58.0202 565.977L57.4333 565.042L61.6258 562.465H62.7577V575.641Z" fill="url(#paint38_linear_175_198)" fill-opacity="0.6"/>
<path d="M61.5 586.008C62.9953 586.008 64.1273 586.639 64.8959 587.9C65.6785 589.147 66.0698 590.962 66.0698 593.345C66.0698 595.728 65.6785 597.549 64.8959 598.81C64.1273 600.071 62.9953 600.701 61.5 600.701C60.0187 600.701 58.8867 600.071 58.1041 598.81C57.3215 597.549 56.9302 595.728 56.9302 593.345C56.9302 590.975 57.3215 589.16 58.1041 587.9C58.8867 586.639 60.0187 586.008 61.5 586.008ZM58.4185 593.345C58.4185 595.035 58.5723 596.358 58.8797 597.314L63.5334 588.107C63.0442 587.456 62.3664 587.131 61.5 587.131C60.5357 587.131 59.7811 587.643 59.2361 588.669C58.691 589.68 58.4185 591.239 58.4185 593.345ZM61.5 599.558C62.4782 599.558 63.2399 599.053 63.7849 598.041C64.3299 597.016 64.6024 595.451 64.6024 593.345C64.6024 591.557 64.4277 590.172 64.0784 589.188L59.4247 598.478C59.9278 599.198 60.6196 599.558 61.5 599.558Z" fill="url(#paint39_linear_175_198)" fill-opacity="0.6"/>
<path d="M62.7577 623.143H65.8392V624.245H57.8525V623.143H61.4162V611.464L58.0202 613.48L57.4333 612.544L61.6258 609.967H62.7577V623.143Z" fill="url(#paint40_linear_175_198)" fill-opacity="0.6"/>
<path d="M61.5 633.511C62.9953 633.511 64.1273 634.141 64.8959 635.402C65.6785 636.649 66.0698 638.464 66.0698 640.847C66.0698 643.23 65.6785 645.052 64.8959 646.312C64.1273 647.573 62.9953 648.204 61.5 648.204C60.0187 648.204 58.8867 647.573 58.1041 646.312C57.3215 645.052 56.9302 643.23 56.9302 640.847C56.9302 638.478 57.3215 636.663 58.1041 635.402C58.8867 634.141 60.0187 633.511 61.5 633.511ZM58.4185 640.847C58.4185 642.537 58.5723 643.86 58.8797 644.816L63.5334 635.61C63.0442 634.958 62.3664 634.633 61.5 634.633C60.5357 634.633 59.7811 635.145 59.2361 636.171C58.691 637.182 58.4185 638.741 58.4185 640.847ZM61.5 647.061C62.4782 647.061 63.2399 646.555 63.7849 645.543C64.3299 644.518 64.6024 642.953 64.6024 640.847C64.6024 639.059 64.4277 637.674 64.0784 636.69L59.4247 645.98C59.9278 646.7 60.6196 647.061 61.5 647.061Z" fill="url(#paint41_linear_175_198)" fill-opacity="0.6"/>
<path d="M100.43 419.751C101.926 419.751 103.057 420.381 103.826 421.642C104.609 422.889 105 424.704 105 427.087C105 429.47 104.609 431.292 103.826 432.553C103.057 433.814 101.926 434.444 100.43 434.444C98.9489 434.444 97.8169 433.814 97.0343 432.553C96.2517 431.292 95.8604 429.47 95.8604 427.087C95.8604 424.718 96.2517 422.903 97.0343 421.642C97.8169 420.381 98.9489 419.751 100.43 419.751ZM97.3487 427.087C97.3487 428.777 97.5024 430.101 97.8099 431.057L102.464 421.85C101.974 421.199 101.297 420.873 100.43 420.873C99.4659 420.873 98.7113 421.386 98.1663 422.411C97.6212 423.423 97.3487 424.981 97.3487 427.087ZM100.43 433.301C101.408 433.301 102.17 432.795 102.715 431.784C103.26 430.759 103.533 429.193 103.533 427.087C103.533 425.3 103.358 423.914 103.009 422.931L98.3549 432.22C98.858 432.941 99.5498 433.301 100.43 433.301Z" fill="url(#paint42_linear_175_198)" fill-opacity="0.6"/>
<path d="M101.688 456.886H104.769V457.987H96.7827V456.886H100.346V445.206L96.9504 447.222L96.3635 446.287L100.556 443.71H101.688V456.886Z" fill="url(#paint43_linear_175_198)" fill-opacity="0.6"/>
<path d="M101.688 480.637H104.769V481.738H96.7827V480.637H100.346V468.957L96.9504 470.973L96.3635 470.038L100.556 467.461H101.688V480.637Z" fill="url(#paint44_linear_175_198)" fill-opacity="0.6"/>
<path d="M100.43 491.004C101.926 491.004 103.057 491.635 103.826 492.895C104.609 494.142 105 495.957 105 498.34C105 500.723 104.609 502.545 103.826 503.806C103.057 505.067 101.926 505.697 100.43 505.697C98.9489 505.697 97.8169 505.067 97.0343 503.806C96.2517 502.545 95.8604 500.723 95.8604 498.34C95.8604 495.971 96.2517 494.156 97.0343 492.895C97.8169 491.635 98.9489 491.004 100.43 491.004ZM97.3487 498.34C97.3487 500.031 97.5024 501.354 97.8099 502.31L102.464 493.103C101.974 492.452 101.297 492.126 100.43 492.126C99.4659 492.126 98.7113 492.639 98.1663 493.664C97.6212 494.676 97.3487 496.234 97.3487 498.34ZM100.43 504.554C101.408 504.554 102.17 504.049 102.715 503.037C103.26 502.012 103.533 500.446 103.533 498.34C103.533 496.553 103.358 495.168 103.009 494.184L98.3549 503.474C98.858 504.194 99.5498 504.554 100.43 504.554Z" fill="url(#paint45_linear_175_198)" fill-opacity="0.6"/>
<path d="M100.43 514.755C101.926 514.755 103.057 515.386 103.826 516.646C104.609 517.893 105 519.708 105 522.091C105 524.474 104.609 526.296 103.826 527.557C103.057 528.818 101.926 529.448 100.43 529.448C98.9489 529.448 97.8169 528.818 97.0343 527.557C96.2517 526.296 95.8604 524.474 95.8604 522.091C95.8604 519.722 96.2517 517.907 97.0343 516.646C97.8169 515.386 98.9489 514.755 100.43 514.755ZM97.3487 522.091C97.3487 523.782 97.5024 525.105 97.8099 526.061L102.464 516.854C101.974 516.203 101.297 515.878 100.43 515.878C99.4659 515.878 98.7113 516.39 98.1663 517.415C97.6212 518.427 97.3487 519.985 97.3487 522.091ZM100.43 528.305C101.408 528.305 102.17 527.8 102.715 526.788C103.26 525.763 103.533 524.197 103.533 522.091C103.533 520.304 103.358 518.919 103.009 517.935L98.3549 527.225C98.858 527.945 99.5498 528.305 100.43 528.305Z" fill="url(#paint46_linear_175_198)" fill-opacity="0.6"/>
<g opacity="0.6">
<path d="M928.93 96C930.356 96 931.436 96.605 932.17 97.8149C932.916 99.0115 933.29 100.753 933.29 103.04C933.29 105.327 932.916 107.075 932.17 108.285C931.436 109.495 930.356 110.1 928.93 110.1C927.517 110.1 926.437 109.495 925.69 108.285C924.943 107.075 924.57 105.327 924.57 103.04C924.57 100.767 924.943 99.0248 925.69 97.8149C926.437 96.605 927.517 96 928.93 96ZM925.99 103.04C925.99 104.662 926.137 105.932 926.43 106.849L930.87 98.0143C930.403 97.3894 929.756 97.077 928.93 97.077C928.01 97.077 927.29 97.5689 926.77 98.5528C926.25 99.5234 925.99 101.019 925.99 103.04ZM928.93 109.003C929.863 109.003 930.59 108.518 931.11 107.547C931.63 106.564 931.89 105.061 931.89 103.04C931.89 101.325 931.723 99.9954 931.39 99.0514L926.95 107.966C927.43 108.658 928.09 109.003 928.93 109.003Z" fill="url(#paint47_linear_175_198)"/>
<path d="M930.13 131.637H933.07V132.694H925.45V131.637H928.85V120.428L925.61 122.363L925.05 121.465L929.05 118.992H930.13V131.637Z" fill="url(#paint48_linear_175_198)"/>
<path d="M928.93 141.586C930.356 141.586 931.436 142.191 932.17 143.4C932.916 144.597 933.29 146.339 933.29 148.626C933.29 150.913 932.916 152.661 932.17 153.871C931.436 155.081 930.356 155.686 928.93 155.686C927.517 155.686 926.437 155.081 925.69 153.871C924.943 152.661 924.57 150.913 924.57 148.626C924.57 146.352 924.943 144.61 925.69 143.4C926.437 142.191 927.517 141.586 928.93 141.586ZM925.99 148.626C925.99 150.248 926.137 151.518 926.43 152.435L930.87 143.6C930.403 142.975 929.756 142.663 928.93 142.663C928.01 142.663 927.29 143.155 926.77 144.138C926.25 145.109 925.99 146.605 925.99 148.626ZM928.93 154.589C929.863 154.589 930.59 154.104 931.11 153.133C931.63 152.149 931.89 150.647 931.89 148.626C931.89 146.911 931.723 145.581 931.39 144.637L926.95 153.552C927.43 154.243 928.09 154.589 928.93 154.589Z" fill="url(#paint49_linear_175_198)"/>
<path d="M930.13 177.222H933.07V178.279H925.45V177.222H928.85V166.014L925.61 167.948L925.05 167.051L929.05 164.578H930.13V177.222Z" fill="url(#paint50_linear_175_198)"/>
<path d="M930.13 200.015H933.07V201.072H925.45V200.015H928.85V188.807L925.61 190.741L925.05 189.844L929.05 187.371H930.13V200.015Z" fill="url(#paint51_linear_175_198)"/>
<path d="M928.93 209.964C930.356 209.964 931.436 210.569 932.17 211.779C932.916 212.976 933.29 214.717 933.29 217.004C933.29 219.291 932.916 221.039 932.17 222.249C931.436 223.459 930.356 224.064 928.93 224.064C927.517 224.064 926.437 223.459 925.69 222.249C924.943 221.039 924.57 219.291 924.57 217.004C924.57 214.731 924.943 212.989 925.69 211.779C926.437 210.569 927.517 209.964 928.93 209.964ZM925.99 217.004C925.99 218.626 926.137 219.896 926.43 220.813L930.87 211.978C930.403 211.353 929.756 211.041 928.93 211.041C928.01 211.041 927.29 211.533 926.77 212.517C926.25 213.487 925.99 214.983 925.99 217.004ZM928.93 222.967C929.863 222.967 930.59 222.482 931.11 221.511C931.63 220.528 931.89 219.025 931.89 217.004C931.89 215.289 931.723 213.959 931.39 213.015L926.95 221.93C927.43 222.622 928.09 222.967 928.93 222.967Z" fill="url(#paint52_linear_175_198)"/>
<path d="M930.13 245.601H933.07V246.658H925.45V245.601H928.85V234.392L925.61 236.327L925.05 235.429L929.05 232.956H930.13V245.601Z" fill="url(#paint53_linear_175_198)"/>
<path d="M928.93 255.55C930.356 255.55 931.436 256.155 932.17 257.365C932.916 258.561 933.29 260.303 933.29 262.59C933.29 264.877 932.916 266.625 932.17 267.835C931.436 269.045 930.356 269.65 928.93 269.65C927.517 269.65 926.437 269.045 925.69 267.835C924.943 266.625 924.57 264.877 924.57 262.59C924.57 260.316 924.943 258.574 925.69 257.365C926.437 256.155 927.517 255.55 928.93 255.55ZM925.99 262.59C925.99 264.212 926.137 265.482 926.43 266.399L930.87 257.564C930.403 256.939 929.756 256.627 928.93 256.627C928.01 256.627 927.29 257.119 926.77 258.102C926.25 259.073 925.99 260.569 925.99 262.59ZM928.93 268.553C929.863 268.553 930.59 268.068 931.11 267.097C931.63 266.113 931.89 264.611 931.89 262.59C931.89 260.875 931.723 259.545 931.39 258.601L926.95 267.516C927.43 268.207 928.09 268.553 928.93 268.553Z" fill="url(#paint54_linear_175_198)"/>
<path d="M928.93 278.342C930.356 278.342 931.436 278.947 932.17 280.157C932.916 281.354 933.29 283.096 933.29 285.383C933.29 287.669 932.916 289.418 932.17 290.628C931.436 291.838 930.356 292.443 928.93 292.443C927.517 292.443 926.437 291.838 925.69 290.628C924.943 289.418 924.57 287.669 924.57 285.383C924.57 283.109 924.943 281.367 925.69 280.157C926.437 278.947 927.517 278.342 928.93 278.342ZM925.99 285.383C925.99 287.005 926.137 288.274 926.43 289.192L930.87 280.357C930.403 279.732 929.756 279.419 928.93 279.419C928.01 279.419 927.29 279.911 926.77 280.895C926.25 281.866 925.99 283.362 925.99 285.383ZM928.93 291.346C929.863 291.346 930.59 290.86 931.11 289.89C931.63 288.906 931.89 287.404 931.89 285.383C931.89 283.667 931.723 282.338 931.39 281.394L926.95 290.309C927.43 291 928.09 291.346 928.93 291.346Z" fill="url(#paint55_linear_175_198)"/>
<path d="M930.13 313.979H933.07V315.036H925.45V313.979H928.85V302.771L925.61 304.705L925.05 303.808L929.05 301.335H930.13V313.979Z" fill="url(#paint56_linear_175_198)"/>
<path d="M928.93 323.928C930.356 323.928 931.436 324.533 932.17 325.743C932.916 326.94 933.29 328.681 933.29 330.968C933.29 333.255 932.916 335.003 932.17 336.213C931.436 337.423 930.356 338.028 928.93 338.028C927.517 338.028 926.437 337.423 925.69 336.213C924.943 335.003 924.57 333.255 924.57 330.968C924.57 328.695 924.943 326.953 925.69 325.743C926.437 324.533 927.517 323.928 928.93 323.928ZM925.99 330.968C925.99 332.59 926.137 333.86 926.43 334.777L930.87 325.942C930.403 325.317 929.756 325.005 928.93 325.005C928.01 325.005 927.29 325.497 926.77 326.481C926.25 327.451 925.99 328.947 925.99 330.968ZM928.93 336.931C929.863 336.931 930.59 336.446 931.11 335.475C931.63 334.492 931.89 332.989 931.89 330.968C931.89 329.253 931.723 327.923 931.39 326.979L926.95 335.894C927.43 336.586 928.09 336.931 928.93 336.931Z" fill="url(#paint57_linear_175_198)"/>
<path d="M930.13 359.565H933.07V360.622H925.45V359.565H928.85V348.356L925.61 350.291L925.05 349.393L929.05 346.92H930.13V359.565Z" fill="url(#paint58_linear_175_198)"/>
<path d="M930.13 382.357H933.07V383.414H925.45V382.357H928.85V371.149L925.61 373.084L925.05 372.186L929.05 369.713H930.13V382.357Z" fill="url(#paint59_linear_175_198)"/>
<path d="M966.07 141.586C967.497 141.586 968.577 142.191 969.31 143.4C970.057 144.597 970.43 146.339 970.43 148.626C970.43 150.913 970.057 152.661 969.31 153.871C968.577 155.081 967.497 155.686 966.07 155.686C964.657 155.686 963.577 155.081 962.83 153.871C962.084 152.661 961.71 150.913 961.71 148.626C961.71 146.352 962.084 144.61 962.83 143.4C963.577 142.191 964.657 141.586 966.07 141.586ZM963.13 148.626C963.13 150.248 963.277 151.518 963.57 152.435L968.01 143.6C967.543 142.975 966.897 142.663 966.07 142.663C965.15 142.663 964.43 143.155 963.91 144.138C963.39 145.109 963.13 146.605 963.13 148.626ZM966.07 154.589C967.003 154.589 967.73 154.104 968.25 153.133C968.77 152.149 969.03 150.647 969.03 148.626C969.03 146.911 968.863 145.581 968.53 144.637L964.09 153.552C964.57 154.243 965.23 154.589 966.07 154.589Z" fill="url(#paint60_linear_175_198)"/>
<path d="M967.27 177.222H970.21V178.279H962.59V177.222H965.99V166.014L962.75 167.948L962.19 167.051L966.19 164.578H967.27V177.222Z" fill="url(#paint61_linear_175_198)"/>
<path d="M966.07 187.171C967.497 187.171 968.577 187.776 969.31 188.986C970.057 190.183 970.43 191.924 970.43 194.211C970.43 196.498 970.057 198.247 969.31 199.457C968.577 200.666 967.497 201.271 966.07 201.271C964.657 201.271 963.577 200.666 962.83 199.457C962.084 198.247 961.71 196.498 961.71 194.211C961.71 191.938 962.084 190.196 962.83 188.986C963.577 187.776 964.657 187.171 966.07 187.171ZM963.13 194.211C963.13 195.833 963.277 197.103 963.57 198.021L968.01 189.186C967.543 188.561 966.897 188.248 966.07 188.248C965.15 188.248 964.43 188.74 963.91 189.724C963.39 190.695 963.13 192.19 963.13 194.211ZM966.07 200.174C967.003 200.174 967.73 199.689 968.25 198.719C968.77 197.735 969.03 196.232 969.03 194.211C969.03 192.496 968.863 191.167 968.53 190.223L964.09 199.137C964.57 199.829 965.23 200.174 966.07 200.174Z" fill="url(#paint62_linear_175_198)"/>
<path d="M966.07 209.964C967.497 209.964 968.577 210.569 969.31 211.779C970.057 212.976 970.43 214.717 970.43 217.004C970.43 219.291 970.057 221.039 969.31 222.249C968.577 223.459 967.497 224.064 966.07 224.064C964.657 224.064 963.577 223.459 962.83 222.249C962.084 221.039 961.71 219.291 961.71 217.004C961.71 214.731 962.084 212.989 962.83 211.779C963.577 210.569 964.657 209.964 966.07 209.964ZM963.13 217.004C963.13 218.626 963.277 219.896 963.57 220.813L968.01 211.978C967.543 211.353 966.897 211.041 966.07 211.041C965.15 211.041 964.43 211.533 963.91 212.517C963.39 213.487 963.13 214.983 963.13 217.004ZM966.07 222.967C967.003 222.967 967.73 222.482 968.25 221.511C968.77 220.528 969.03 219.025 969.03 217.004C969.03 215.289 968.863 213.959 968.53 213.015L964.09 221.93C964.57 222.622 965.23 222.967 966.07 222.967Z" fill="url(#paint63_linear_175_198)"/>
<path d="M967.27 245.601H970.21V246.658H962.59V245.601H965.99V234.392L962.75 236.327L962.19 235.429L966.19 232.956H967.27V245.601Z" fill="url(#paint64_linear_175_198)"/>
<path d="M966.07 255.55C967.497 255.55 968.577 256.155 969.31 257.365C970.057 258.561 970.43 260.303 970.43 262.59C970.43 264.877 970.057 266.625 969.31 267.835C968.577 269.045 967.497 269.65 966.07 269.65C964.657 269.65 963.577 269.045 962.83 267.835C962.084 266.625 961.71 264.877 961.71 262.59C961.71 260.316 962.084 258.574 962.83 257.365C963.577 256.155 964.657 255.55 966.07 255.55ZM963.13 262.59C963.13 264.212 963.277 265.482 963.57 266.399L968.01 257.564C967.543 256.939 966.897 256.627 966.07 256.627C965.15 256.627 964.43 257.119 963.91 258.102C963.39 259.073 963.13 260.569 963.13 262.59ZM966.07 268.553C967.003 268.553 967.73 268.068 968.25 267.097C968.77 266.113 969.03 264.611 969.03 262.59C969.03 260.875 968.863 259.545 968.53 258.601L964.09 267.516C964.57 268.207 965.23 268.553 966.07 268.553Z" fill="url(#paint65_linear_175_198)"/>
<path d="M967.27 291.186H970.21V292.243H962.59V291.186H965.99V279.978L962.75 281.912L962.19 281.015L966.19 278.542H967.27V291.186Z" fill="url(#paint66_linear_175_198)"/>
<path d="M966.07 301.135C967.497 301.135 968.577 301.74 969.31 302.95C970.057 304.147 970.43 305.888 970.43 308.175C970.43 310.462 970.057 312.211 969.31 313.421C968.577 314.63 967.497 315.235 966.07 315.235C964.657 315.235 963.577 314.63 962.83 313.421C962.084 312.211 961.71 310.462 961.71 308.175C961.71 305.902 962.084 304.16 962.83 302.95C963.577 301.74 964.657 301.135 966.07 301.135ZM963.13 308.175C963.13 309.797 963.277 311.067 963.57 311.985L968.01 303.15C967.543 302.525 966.897 302.212 966.07 302.212C965.15 302.212 964.43 302.704 963.91 303.688C963.39 304.659 963.13 306.154 963.13 308.175ZM966.07 314.139C967.003 314.139 967.73 313.653 968.25 312.683C968.77 311.699 969.03 310.196 969.03 308.175C969.03 306.46 968.863 305.131 968.53 304.187L964.09 313.101C964.57 313.793 965.23 314.139 966.07 314.139Z" fill="url(#paint67_linear_175_198)"/>
<path d="M966.07 323.928C967.497 323.928 968.577 324.533 969.31 325.743C970.057 326.94 970.43 328.681 970.43 330.968C970.43 333.255 970.057 335.003 969.31 336.213C968.577 337.423 967.497 338.028 966.07 338.028C964.657 338.028 963.577 337.423 962.83 336.213C962.084 335.003 961.71 333.255 961.71 330.968C961.71 328.695 962.084 326.953 962.83 325.743C963.577 324.533 964.657 323.928 966.07 323.928ZM963.13 330.968C963.13 332.59 963.277 333.86 963.57 334.777L968.01 325.942C967.543 325.317 966.897 325.005 966.07 325.005C965.15 325.005 964.43 325.497 963.91 326.481C963.39 327.451 963.13 328.947 963.13 330.968ZM966.07 336.931C967.003 336.931 967.73 336.446 968.25 335.475C968.77 334.492 969.03 332.989 969.03 330.968C969.03 329.253 968.863 327.923 968.53 326.979L964.09 335.894C964.57 336.586 965.23 336.931 966.07 336.931Z" fill="url(#paint68_linear_175_198)"/>
<path d="M967.27 359.565H970.21V360.622H962.59V359.565H965.99V348.356L962.75 350.291L962.19 349.393L966.19 346.92H967.27V359.565Z" fill="url(#paint69_linear_175_198)"/>
<path d="M966.07 369.514C967.497 369.514 968.577 370.119 969.31 371.329C970.057 372.525 970.43 374.267 970.43 376.554C970.43 378.841 970.057 380.589 969.31 381.799C968.577 383.009 967.497 383.614 966.07 383.614C964.657 383.614 963.577 383.009 962.83 381.799C962.084 380.589 961.71 378.841 961.71 376.554C961.71 374.28 962.084 372.538 962.83 371.329C963.577 370.119 964.657 369.514 966.07 369.514ZM963.13 376.554C963.13 378.176 963.277 379.446 963.57 380.363L968.01 371.528C967.543 370.903 966.897 370.591 966.07 370.591C965.15 370.591 964.43 371.083 963.91 372.066C963.39 373.037 963.13 374.533 963.13 376.554ZM966.07 382.517C967.003 382.517 967.73 382.032 968.25 381.061C968.77 380.077 969.03 378.575 969.03 376.554C969.03 374.839 968.863 373.509 968.53 372.565L964.09 381.48C964.57 382.171 965.23 382.517 966.07 382.517Z" fill="url(#paint70_linear_175_198)"/>
<path d="M967.27 405.15H970.21V406.207H962.59V405.15H965.99V393.942L962.75 395.876L962.19 394.979L966.19 392.506H967.27V405.15Z" fill="url(#paint71_linear_175_198)"/>
<path d="M967.27 427.943H970.21V429H962.59V427.943H965.99V416.735L962.75 418.669L962.19 417.772L966.19 415.299H967.27V427.943Z" fill="url(#paint72_linear_175_198)"/>
<path d="M910.36 164.378C911.786 164.378 912.866 164.983 913.599 166.193C914.346 167.39 914.719 169.132 914.719 171.419C914.719 173.705 914.346 175.454 913.599 176.664C912.866 177.874 911.786 178.479 910.36 178.479C908.946 178.479 907.867 177.874 907.12 176.664C906.373 175.454 906 173.705 906 171.419C906 169.145 906.373 167.403 907.12 166.193C907.867 164.983 908.946 164.378 910.36 164.378ZM907.42 171.419C907.42 173.041 907.567 174.31 907.86 175.228L912.3 166.393C911.833 165.768 911.186 165.455 910.36 165.455C909.44 165.455 908.72 165.947 908.2 166.931C907.68 167.902 907.42 169.398 907.42 171.419ZM910.36 177.382C911.293 177.382 912.02 176.896 912.54 175.926C913.06 174.942 913.319 173.44 913.319 171.419C913.319 169.703 913.153 168.374 912.82 167.43L908.38 176.345C908.86 177.036 909.52 177.382 910.36 177.382Z" fill="url(#paint73_linear_175_198)"/>
<path d="M910.36 187.171C911.786 187.171 912.866 187.776 913.599 188.986C914.346 190.183 914.719 191.924 914.719 194.211C914.719 196.498 914.346 198.247 913.599 199.457C912.866 200.666 911.786 201.271 910.36 201.271C908.946 201.271 907.867 200.666 907.12 199.457C906.373 198.247 906 196.498 906 194.211C906 191.938 906.373 190.196 907.12 188.986C907.867 187.776 908.946 187.171 910.36 187.171ZM907.42 194.211C907.42 195.833 907.567 197.103 907.86 198.021L912.3 189.186C911.833 188.561 911.186 188.248 910.36 188.248C909.44 188.248 908.72 188.74 908.2 189.724C907.68 190.695 907.42 192.19 907.42 194.211ZM910.36 200.174C911.293 200.174 912.02 199.689 912.54 198.719C913.06 197.735 913.319 196.232 913.319 194.211C913.319 192.496 913.153 191.167 912.82 190.223L908.38 199.137C908.86 199.829 909.52 200.174 910.36 200.174Z" fill="url(#paint74_linear_175_198)"/>
<path d="M911.56 222.808H914.499V223.865H906.88V222.808H910.28V211.599L907.04 213.534L906.48 212.636L910.48 210.163H911.56V222.808Z" fill="url(#paint75_linear_175_198)"/>
<path d="M910.36 232.757C911.786 232.757 912.866 233.362 913.599 234.572C914.346 235.768 914.719 237.51 914.719 239.797C914.719 242.084 914.346 243.832 913.599 245.042C912.866 246.252 911.786 246.857 910.36 246.857C908.946 246.857 907.867 246.252 907.12 245.042C906.373 243.832 906 242.084 906 239.797C906 237.523 906.373 235.782 907.12 234.572C907.867 233.362 908.946 232.757 910.36 232.757ZM907.42 239.797C907.42 241.419 907.567 242.689 907.86 243.606L912.3 234.771C911.833 234.146 911.186 233.834 910.36 233.834C909.44 233.834 908.72 234.326 908.2 235.31C907.68 236.28 907.42 237.776 907.42 239.797ZM910.36 245.76C911.293 245.76 912.02 245.275 912.54 244.304C913.06 243.32 913.319 241.818 913.319 239.797C913.319 238.082 913.153 236.752 912.82 235.808L908.38 244.723C908.86 245.414 909.52 245.76 910.36 245.76Z" fill="url(#paint76_linear_175_198)"/>
<path d="M911.56 268.393H914.499V269.45H906.88V268.393H910.28V257.185L907.04 259.12L906.48 258.222L910.48 255.749H911.56V268.393Z" fill="url(#paint77_linear_175_198)"/>
<path d="M911.56 291.186H914.499V292.243H906.88V291.186H910.28V279.978L907.04 281.912L906.48 281.015L910.48 278.542H911.56V291.186Z" fill="url(#paint78_linear_175_198)"/>
<path d="M948.7 131.637H951.64V132.694H944.02V131.637H947.42V120.428L944.18 122.363L943.62 121.465L947.62 118.992H948.7V131.637Z" fill="url(#paint79_linear_175_198)"/>
<path d="M947.5 141.586C948.927 141.586 950.006 142.191 950.74 143.4C951.486 144.597 951.86 146.339 951.86 148.626C951.86 150.913 951.486 152.661 950.74 153.871C950.006 155.081 948.927 155.686 947.5 155.686C946.087 155.686 945.007 155.081 944.26 153.871C943.514 152.661 943.14 150.913 943.14 148.626C943.14 146.352 943.514 144.61 944.26 143.4C945.007 142.191 946.087 141.586 947.5 141.586ZM944.56 148.626C944.56 150.248 944.707 151.518 945 152.435L949.44 143.6C948.973 142.975 948.327 142.663 947.5 142.663C946.58 142.663 945.86 143.155 945.34 144.138C944.82 145.109 944.56 146.605 944.56 148.626ZM947.5 154.589C948.433 154.589 949.16 154.104 949.68 153.133C950.2 152.149 950.46 150.647 950.46 148.626C950.46 146.911 950.293 145.581 949.96 144.637L945.52 153.552C946 154.243 946.66 154.589 947.5 154.589Z" fill="url(#paint80_linear_175_198)"/>
<path d="M948.7 177.222H951.64V178.279H944.02V177.222H947.42V166.014L944.18 167.948L943.62 167.051L947.62 164.578H948.7V177.222Z" fill="url(#paint81_linear_175_198)"/>
<path d="M948.7 200.015H951.64V201.072H944.02V200.015H947.42V188.807L944.18 190.741L943.62 189.844L947.62 187.371H948.7V200.015Z" fill="url(#paint82_linear_175_198)"/>
<path d="M947.5 209.964C948.927 209.964 950.006 210.569 950.74 211.779C951.486 212.976 951.86 214.717 951.86 217.004C951.86 219.291 951.486 221.039 950.74 222.249C950.006 223.459 948.927 224.064 947.5 224.064C946.087 224.064 945.007 223.459 944.26 222.249C943.514 221.039 943.14 219.291 943.14 217.004C943.14 214.731 943.514 212.989 944.26 211.779C945.007 210.569 946.087 209.964 947.5 209.964ZM944.56 217.004C944.56 218.626 944.707 219.896 945 220.813L949.44 211.978C948.973 211.353 948.327 211.041 947.5 211.041C946.58 211.041 945.86 211.533 945.34 212.517C944.82 213.487 944.56 214.983 944.56 217.004ZM947.5 222.967C948.433 222.967 949.16 222.482 949.68 221.511C950.2 220.528 950.46 219.025 950.46 217.004C950.46 215.289 950.293 213.959 949.96 213.015L945.52 221.93C946 222.622 946.66 222.967 947.5 222.967Z" fill="url(#paint83_linear_175_198)"/>
<path d="M948.7 245.601H951.64V246.658H944.02V245.601H947.42V234.392L944.18 236.327L943.62 235.429L947.62 232.956H948.7V245.601Z" fill="url(#paint84_linear_175_198)"/>
<path d="M948.7 268.393H951.64V269.45H944.02V268.393H947.42V257.185L944.18 259.12L943.62 258.222L947.62 255.749H948.7V268.393Z" fill="url(#paint85_linear_175_198)"/>
<path d="M947.5 278.342C948.927 278.342 950.006 278.947 950.74 280.157C951.486 281.354 951.86 283.096 951.86 285.383C951.86 287.669 951.486 289.418 950.74 290.628C950.006 291.838 948.927 292.443 947.5 292.443C946.087 292.443 945.007 291.838 944.26 290.628C943.514 289.418 943.14 287.669 943.14 285.383C943.14 283.109 943.514 281.367 944.26 280.157C945.007 278.947 946.087 278.342 947.5 278.342ZM944.56 285.383C944.56 287.005 944.707 288.274 945 289.192L949.44 280.357C948.973 279.732 948.327 279.419 947.5 279.419C946.58 279.419 945.86 279.911 945.34 280.895C944.82 281.866 944.56 283.362 944.56 285.383ZM947.5 291.346C948.433 291.346 949.16 290.86 949.68 289.89C950.2 288.906 950.46 287.404 950.46 285.383C950.46 283.667 950.293 282.338 949.96 281.394L945.52 290.309C946 291 946.66 291.346 947.5 291.346Z" fill="url(#paint86_linear_175_198)"/>
<path d="M948.7 313.979H951.64V315.036H944.02V313.979H947.42V302.771L944.18 304.705L943.62 303.808L947.62 301.335H948.7V313.979Z" fill="url(#paint87_linear_175_198)"/>
<path d="M947.5 323.928C948.927 323.928 950.006 324.533 950.74 325.743C951.486 326.94 951.86 328.681 951.86 330.968C951.86 333.255 951.486 335.003 950.74 336.213C950.006 337.423 948.927 338.028 947.5 338.028C946.087 338.028 945.007 337.423 944.26 336.213C943.514 335.003 943.14 333.255 943.14 330.968C943.14 328.695 943.514 326.953 944.26 325.743C945.007 324.533 946.087 323.928 947.5 323.928ZM944.56 330.968C944.56 332.59 944.707 333.86 945 334.777L949.44 325.942C948.973 325.317 948.327 325.005 947.5 325.005C946.58 325.005 945.86 325.497 945.34 326.481C944.82 327.451 944.56 328.947 944.56 330.968ZM947.5 336.931C948.433 336.931 949.16 336.446 949.68 335.475C950.2 334.492 950.46 332.989 950.46 330.968C950.46 329.253 950.293 327.923 949.96 326.979L945.52 335.894C946 336.586 946.66 336.931 947.5 336.931Z" fill="url(#paint88_linear_175_198)"/>
<path d="M984.64 118.793C986.067 118.793 987.147 119.398 987.88 120.608C988.627 121.804 989 123.546 989 125.833C989 128.12 988.627 129.868 987.88 131.078C987.147 132.288 986.067 132.893 984.64 132.893C983.227 132.893 982.147 132.288 981.401 131.078C980.654 129.868 980.281 128.12 980.281 125.833C980.281 123.559 980.654 121.818 981.401 120.608C982.147 119.398 983.227 118.793 984.64 118.793ZM981.7 125.833C981.7 127.455 981.847 128.725 982.14 129.642L986.58 120.807C986.114 120.182 985.467 119.87 984.64 119.87C983.72 119.87 983 120.362 982.48 121.346C981.96 122.316 981.7 123.812 981.7 125.833ZM984.64 131.796C985.574 131.796 986.3 131.311 986.82 130.34C987.34 129.356 987.6 127.854 987.6 125.833C987.6 124.118 987.433 122.788 987.1 121.844L982.66 130.759C983.14 131.45 983.8 131.796 984.64 131.796Z" fill="url(#paint89_linear_175_198)"/>
<path d="M985.84 154.429H988.78V155.486H981.161V154.429H984.56V143.221L981.321 145.156L980.761 144.258L984.76 141.785H985.84V154.429Z" fill="url(#paint90_linear_175_198)"/>
<path d="M985.84 177.222H988.78V178.279H981.161V177.222H984.56V166.014L981.321 167.948L980.761 167.051L984.76 164.578H985.84V177.222Z" fill="url(#paint91_linear_175_198)"/>
<path d="M984.64 187.171C986.067 187.171 987.147 187.776 987.88 188.986C988.627 190.183 989 191.924 989 194.211C989 196.498 988.627 198.247 987.88 199.457C987.147 200.666 986.067 201.271 984.64 201.271C983.227 201.271 982.147 200.666 981.401 199.457C980.654 198.247 980.281 196.498 980.281 194.211C980.281 191.938 980.654 190.196 981.401 188.986C982.147 187.776 983.227 187.171 984.64 187.171ZM981.7 194.211C981.7 195.833 981.847 197.103 982.14 198.021L986.58 189.186C986.114 188.561 985.467 188.248 984.64 188.248C983.72 188.248 983 188.74 982.48 189.724C981.96 190.695 981.7 192.19 981.7 194.211ZM984.64 200.174C985.574 200.174 986.3 199.689 986.82 198.719C987.34 197.735 987.6 196.232 987.6 194.211C987.6 192.496 987.433 191.167 987.1 190.223L982.66 199.137C983.14 199.829 983.8 200.174 984.64 200.174Z" fill="url(#paint92_linear_175_198)"/>
<path d="M984.64 209.964C986.067 209.964 987.147 210.569 987.88 211.779C988.627 212.976 989 214.717 989 217.004C989 219.291 988.627 221.039 987.88 222.249C987.147 223.459 986.067 224.064 984.64 224.064C983.227 224.064 982.147 223.459 981.401 222.249C980.654 221.039 980.281 219.291 980.281 217.004C980.281 214.731 980.654 212.989 981.401 211.779C982.147 210.569 983.227 209.964 984.64 209.964ZM981.7 217.004C981.7 218.626 981.847 219.896 982.14 220.813L986.58 211.978C986.114 211.353 985.467 211.041 984.64 211.041C983.72 211.041 983 211.533 982.48 212.517C981.96 213.487 981.7 214.983 981.7 217.004ZM984.64 222.967C985.574 222.967 986.3 222.482 986.82 221.511C987.34 220.528 987.6 219.025 987.6 217.004C987.6 215.289 987.433 213.959 987.1 213.015L982.66 221.93C983.14 222.622 983.8 222.967 984.64 222.967Z" fill="url(#paint93_linear_175_198)"/>
</g>
<defs>
<filter id="filter0_f_175_198" x="-549.19" y="-590.19" width="2141.38" height="1500.38" filterUnits="userSpaceOnUse" color-interpolation-filters="sRGB">
<feFlood flood-opacity="0" result="BackgroundImageFix"/>
<feBlend mode="normal" in="SourceGraphic" in2="BackgroundImageFix" result="shape"/>
<feGaussianBlur stdDeviation="200.095" result="effect1_foregroundBlur_175_198"/>
</filter>
<linearGradient id="paint0_linear_175_198" x1="61.5" y1="396" x2="61.5" y2="707.381" gradientUnits="userSpaceOnUse">
<stop stop-color="#F7DD43"/>
<stop offset="1" stop-color="#F7DD43" stop-opacity="0"/>
</linearGradient>
<linearGradient id="paint1_linear_175_198" x1="61.5" y1="396" x2="61.5" y2="707.381" gradientUnits="userSpaceOnUse">
<stop stop-color="#F7DD43"/>
<stop offset="1" stop-color="#F7DD43" stop-opacity="0"/>
</linearGradient>
<linearGradient id="paint2_linear_175_198" x1="61.5" y1="396" x2="61.5" y2="707.381" gradientUnits="userSpaceOnUse">
<stop stop-color="#F7DD43"/>
<stop offset="1" stop-color="#F7DD43" stop-opacity="0"/>
</linearGradient>
<linearGradient id="paint3_linear_175_198" x1="61.5" y1="396" x2="61.5" y2="707.381" gradientUnits="userSpaceOnUse">
<stop stop-color="#F7DD43"/>
<stop offset="1" stop-color="#F7DD43" stop-opacity="0"/>
</linearGradient>
<linearGradient id="paint4_linear_175_198" x1="61.5" y1="396" x2="61.5" y2="707.381" gradientUnits="userSpaceOnUse">
<stop stop-color="#F7DD43"/>
<stop offset="1" stop-color="#F7DD43" stop-opacity="0"/>
</linearGradient>
<linearGradient id="paint5_linear_175_198" x1="61.5" y1="396" x2="61.5" y2="707.381" gradientUnits="userSpaceOnUse">
<stop stop-color="#F7DD43"/>
<stop offset="1" stop-color="#F7DD43" stop-opacity="0"/>
</linearGradient>
<linearGradient id="paint6_linear_175_198" x1="61.5" y1="396" x2="61.5" y2="707.381" gradientUnits="userSpaceOnUse">
<stop stop-color="#F7DD43"/>
<stop offset="1" stop-color="#F7DD43" stop-opacity="0"/>
</linearGradient>
<linearGradient id="paint7_linear_175_198" x1="61.5" y1="396" x2="61.5" y2="707.381" gradientUnits="userSpaceOnUse">
<stop stop-color="#F7DD43"/>
<stop offset="1" stop-color="#F7DD43" stop-opacity="0"/>
</linearGradient>
<linearGradient id="paint8_linear_175_198" x1="61.5" y1="396" x2="61.5" y2="707.381" gradientUnits="userSpaceOnUse">
<stop stop-color="#F7DD43"/>
<stop offset="1" stop-color="#F7DD43" stop-opacity="0"/>
</linearGradient>
<linearGradient id="paint9_linear_175_198" x1="61.5" y1="396" x2="61.5" y2="707.381" gradientUnits="userSpaceOnUse">
<stop stop-color="#F7DD43"/>
<stop offset="1" stop-color="#F7DD43" stop-opacity="0"/>
</linearGradient>
<linearGradient id="paint10_linear_175_198" x1="61.5" y1="396" x2="61.5" y2="707.381" gradientUnits="userSpaceOnUse">
<stop stop-color="#F7DD43"/>
<stop offset="1" stop-color="#F7DD43" stop-opacity="0"/>
</linearGradient>
<linearGradient id="paint11_linear_175_198" x1="61.5" y1="396" x2="61.5" y2="707.381" gradientUnits="userSpaceOnUse">
<stop stop-color="#F7DD43"/>
<stop offset="1" stop-color="#F7DD43" stop-opacity="0"/>
</linearGradient>
<linearGradient id="paint12_linear_175_198" x1="61.5" y1="396" x2="61.5" y2="707.381" gradientUnits="userSpaceOnUse">
<stop stop-color="#F7DD43"/>
<stop offset="1" stop-color="#F7DD43" stop-opacity="0"/>
</linearGradient>
<linearGradient id="paint13_linear_175_198" x1="61.5" y1="396" x2="61.5" y2="707.381" gradientUnits="userSpaceOnUse">
<stop stop-color="#F7DD43"/>
<stop offset="1" stop-color="#F7DD43" stop-opacity="0"/>
</linearGradient>
<linearGradient id="paint14_linear_175_198" x1="61.5" y1="396" x2="61.5" y2="707.381" gradientUnits="userSpaceOnUse">
<stop stop-color="#F7DD43"/>
<stop offset="1" stop-color="#F7DD43" stop-opacity="0"/>
</linearGradient>
<linearGradient id="paint15_linear_175_198" x1="61.5" y1="396" x2="61.5" y2="707.381" gradientUnits="userSpaceOnUse">
<stop stop-color="#F7DD43"/>
<stop offset="1" stop-color="#F7DD43" stop-opacity="0"/>
</linearGradient>
<linearGradient id="paint16_linear_175_198" x1="61.5" y1="396" x2="61.5" y2="707.381" gradientUnits="userSpaceOnUse">
<stop stop-color="#F7DD43"/>
<stop offset="1" stop-color="#F7DD43" stop-opacity="0"/>
</linearGradient>
<linearGradient id="paint17_linear_175_198" x1="61.5" y1="396" x2="61.5" y2="707.381" gradientUnits="userSpaceOnUse">
<stop stop-color="#F7DD43"/>
<stop offset="1" stop-color="#F7DD43" stop-opacity="0"/>
</linearGradient>
<linearGradient id="paint18_linear_175_198" x1="61.5" y1="396" x2="61.5" y2="707.381" gradientUnits="userSpaceOnUse">
<stop stop-color="#F7DD43"/>
<stop offset="1" stop-color="#F7DD43" stop-opacity="0"/>
</linearGradient>
<linearGradient id="paint19_linear_175_198" x1="61.5" y1="396" x2="61.5" y2="707.381" gradientUnits="userSpaceOnUse">
<stop stop-color="#F7DD43"/>
<stop offset="1" stop-color="#F7DD43" stop-opacity="0"/>
</linearGradient>
<linearGradient id="paint20_linear_175_198" x1="61.5" y1="396" x2="61.5" y2="707.381" gradientUnits="userSpaceOnUse">
<stop stop-color="#F7DD43"/>
<stop offset="1" stop-color="#F7DD43" stop-opacity="0"/>
</linearGradient>
<linearGradient id="paint21_linear_175_198" x1="61.5" y1="396" x2="61.5" y2="707.381" gradientUnits="userSpaceOnUse">
<stop stop-color="#F7DD43"/>
<stop offset="1" stop-color="#F7DD43" stop-opacity="0"/>
</linearGradient>
<linearGradient id="paint22_linear_175_198" x1="61.5" y1="396" x2="61.5" y2="707.381" gradientUnits="userSpaceOnUse">
<stop stop-color="#F7DD43"/>
<stop offset="1" stop-color="#F7DD43" stop-opacity="0"/>
</linearGradient>
<linearGradient id="paint23_linear_175_198" x1="61.5" y1="396" x2="61.5" y2="707.381" gradientUnits="userSpaceOnUse">
<stop stop-color="#F7DD43"/>
<stop offset="1" stop-color="#F7DD43" stop-opacity="0"/>
</linearGradient>
<linearGradient id="paint24_linear_175_198" x1="61.5" y1="396" x2="61.5" y2="707.381" gradientUnits="userSpaceOnUse">
<stop stop-color="#F7DD43"/>
<stop offset="1" stop-color="#F7DD43" stop-opacity="0"/>
</linearGradient>
<linearGradient id="paint25_linear_175_198" x1="61.5" y1="396" x2="61.5" y2="707.381" gradientUnits="userSpaceOnUse">
<stop stop-color="#F7DD43"/>
<stop offset="1" stop-color="#F7DD43" stop-opacity="0"/>
</linearGradient>
<linearGradient id="paint26_linear_175_198" x1="61.5" y1="396" x2="61.5" y2="707.381" gradientUnits="userSpaceOnUse">
<stop stop-color="#F7DD43"/>
<stop offset="1" stop-color="#F7DD43" stop-opacity="0"/>
</linearGradient>
<linearGradient id="paint27_linear_175_198" x1="61.5" y1="396" x2="61.5" y2="707.381" gradientUnits="userSpaceOnUse">
<stop stop-color="#F7DD43"/>
<stop offset="1" stop-color="#F7DD43" stop-opacity="0"/>
</linearGradient>
<linearGradient id="paint28_linear_175_198" x1="61.5" y1="396" x2="61.5" y2="707.381" gradientUnits="userSpaceOnUse">
<stop stop-color="#F7DD43"/>
<stop offset="1" stop-color="#F7DD43" stop-opacity="0"/>
</linearGradient>
<linearGradient id="paint29_linear_175_198" x1="61.5" y1="396" x2="61.5" y2="707.381" gradientUnits="userSpaceOnUse">
<stop stop-color="#F7DD43"/>
<stop offset="1" stop-color="#F7DD43" stop-opacity="0"/>
</linearGradient>
<linearGradient id="paint30_linear_175_198" x1="61.5" y1="396" x2="61.5" y2="707.381" gradientUnits="userSpaceOnUse">
<stop stop-color="#F7DD43"/>
<stop offset="1" stop-color="#F7DD43" stop-opacity="0"/>
</linearGradient>
<linearGradient id="paint31_linear_175_198" x1="61.5" y1="396" x2="61.5" y2="707.381" gradientUnits="userSpaceOnUse">
<stop stop-color="#F7DD43"/>
<stop offset="1" stop-color="#F7DD43" stop-opacity="0"/>
</linearGradient>
<linearGradient id="paint32_linear_175_198" x1="61.5" y1="396" x2="61.5" y2="707.381" gradientUnits="userSpaceOnUse">
<stop stop-color="#F7DD43"/>
<stop offset="1" stop-color="#F7DD43" stop-opacity="0"/>
</linearGradient>
<linearGradient id="paint33_linear_175_198" x1="61.5" y1="396" x2="61.5" y2="707.381" gradientUnits="userSpaceOnUse">
<stop stop-color="#F7DD43"/>
<stop offset="1" stop-color="#F7DD43" stop-opacity="0"/>
</linearGradient>
<linearGradient id="paint34_linear_175_198" x1="61.5" y1="396" x2="61.5" y2="707.381" gradientUnits="userSpaceOnUse">
<stop stop-color="#F7DD43"/>
<stop offset="1" stop-color="#F7DD43" stop-opacity="0"/>
</linearGradient>
<linearGradient id="paint35_linear_175_198" x1="61.5" y1="396" x2="61.5" y2="707.381" gradientUnits="userSpaceOnUse">
<stop stop-color="#F7DD43"/>
<stop offset="1" stop-color="#F7DD43" stop-opacity="0"/>
</linearGradient>
<linearGradient id="paint36_linear_175_198" x1="61.5" y1="396" x2="61.5" y2="707.381" gradientUnits="userSpaceOnUse">
<stop stop-color="#F7DD43"/>
<stop offset="1" stop-color="#F7DD43" stop-opacity="0"/>
</linearGradient>
<linearGradient id="paint37_linear_175_198" x1="61.5" y1="396" x2="61.5" y2="707.381" gradientUnits="userSpaceOnUse">
<stop stop-color="#F7DD43"/>
<stop offset="1" stop-color="#F7DD43" stop-opacity="0"/>
</linearGradient>
<linearGradient id="paint38_linear_175_198" x1="61.5" y1="396" x2="61.5" y2="707.381" gradientUnits="userSpaceOnUse">
<stop stop-color="#F7DD43"/>
<stop offset="1" stop-color="#F7DD43" stop-opacity="0"/>
</linearGradient>
<linearGradient id="paint39_linear_175_198" x1="61.5" y1="396" x2="61.5" y2="707.381" gradientUnits="userSpaceOnUse">
<stop stop-color="#F7DD43"/>
<stop offset="1" stop-color="#F7DD43" stop-opacity="0"/>
</linearGradient>
<linearGradient id="paint40_linear_175_198" x1="61.5" y1="396" x2="61.5" y2="707.381" gradientUnits="userSpaceOnUse">
<stop stop-color="#F7DD43"/>
<stop offset="1" stop-color="#F7DD43" stop-opacity="0"/>
</linearGradient>
<linearGradient id="paint41_linear_175_198" x1="61.5" y1="396" x2="61.5" y2="707.381" gradientUnits="userSpaceOnUse">
<stop stop-color="#F7DD43"/>
<stop offset="1" stop-color="#F7DD43" stop-opacity="0"/>
</linearGradient>
<linearGradient id="paint42_linear_175_198" x1="61.5" y1="396" x2="61.5" y2="707.381" gradientUnits="userSpaceOnUse">
<stop stop-color="#F7DD43"/>
<stop offset="1" stop-color="#F7DD43" stop-opacity="0"/>
</linearGradient>
<linearGradient id="paint43_linear_175_198" x1="61.5" y1="396" x2="61.5" y2="707.381" gradientUnits="userSpaceOnUse">
<stop stop-color="#F7DD43"/>
<stop offset="1" stop-color="#F7DD43" stop-opacity="0"/>
</linearGradient>
<linearGradient id="paint44_linear_175_198" x1="61.5" y1="396" x2="61.5" y2="707.381" gradientUnits="userSpaceOnUse">
<stop stop-color="#F7DD43"/>
<stop offset="1" stop-color="#F7DD43" stop-opacity="0"/>
</linearGradient>
<linearGradient id="paint45_linear_175_198" x1="61.5" y1="396" x2="61.5" y2="707.381" gradientUnits="userSpaceOnUse">
<stop stop-color="#F7DD43"/>
<stop offset="1" stop-color="#F7DD43" stop-opacity="0"/>
</linearGradient>
<linearGradient id="paint46_linear_175_198" x1="61.5" y1="396" x2="61.5" y2="707.381" gradientUnits="userSpaceOnUse">
<stop stop-color="#F7DD43"/>
<stop offset="1" stop-color="#F7DD43" stop-opacity="0"/>
</linearGradient>
<linearGradient id="paint47_linear_175_198" x1="947.5" y1="96" x2="947.5" y2="394.818" gradientUnits="userSpaceOnUse">
<stop stop-color="#F7DD43"/>
<stop offset="1" stop-color="#F7DD43" stop-opacity="0"/>
</linearGradient>
<linearGradient id="paint48_linear_175_198" x1="947.5" y1="96" x2="947.5" y2="394.818" gradientUnits="userSpaceOnUse">
<stop stop-color="#F7DD43"/>
<stop offset="1" stop-color="#F7DD43" stop-opacity="0"/>
</linearGradient>
<linearGradient id="paint49_linear_175_198" x1="947.5" y1="96" x2="947.5" y2="394.818" gradientUnits="userSpaceOnUse">
<stop stop-color="#F7DD43"/>
<stop offset="1" stop-color="#F7DD43" stop-opacity="0"/>
</linearGradient>
<linearGradient id="paint50_linear_175_198" x1="947.5" y1="96" x2="947.5" y2="394.818" gradientUnits="userSpaceOnUse">
<stop stop-color="#F7DD43"/>
<stop offset="1" stop-color="#F7DD43" stop-opacity="0"/>
</linearGradient>
<linearGradient id="paint51_linear_175_198" x1="947.5" y1="96" x2="947.5" y2="394.818" gradientUnits="userSpaceOnUse">
<stop stop-color="#F7DD43"/>
<stop offset="1" stop-color="#F7DD43" stop-opacity="0"/>
</linearGradient>
<linearGradient id="paint52_linear_175_198" x1="947.5" y1="96" x2="947.5" y2="394.818" gradientUnits="userSpaceOnUse">
<stop stop-color="#F7DD43"/>
<stop offset="1" stop-color="#F7DD43" stop-opacity="0"/>
</linearGradient>
<linearGradient id="paint53_linear_175_198" x1="947.5" y1="96" x2="947.5" y2="394.818" gradientUnits="userSpaceOnUse">
<stop stop-color="#F7DD43"/>
<stop offset="1" stop-color="#F7DD43" stop-opacity="0"/>
</linearGradient>
<linearGradient id="paint54_linear_175_198" x1="947.5" y1="96" x2="947.5" y2="394.818" gradientUnits="userSpaceOnUse">
<stop stop-color="#F7DD43"/>
<stop offset="1" stop-color="#F7DD43" stop-opacity="0"/>
</linearGradient>
<linearGradient id="paint55_linear_175_198" x1="947.5" y1="96" x2="947.5" y2="394.818" gradientUnits="userSpaceOnUse">
<stop stop-color="#F7DD43"/>
<stop offset="1" stop-color="#F7DD43" stop-opacity="0"/>
</linearGradient>
<linearGradient id="paint56_linear_175_198" x1="947.5" y1="96" x2="947.5" y2="394.818" gradientUnits="userSpaceOnUse">
<stop stop-color="#F7DD43"/>
<stop offset="1" stop-color="#F7DD43" stop-opacity="0"/>
</linearGradient>
<linearGradient id="paint57_linear_175_198" x1="947.5" y1="96" x2="947.5" y2="394.818" gradientUnits="userSpaceOnUse">
<stop stop-color="#F7DD43"/>
<stop offset="1" stop-color="#F7DD43" stop-opacity="0"/>
</linearGradient>
<linearGradient id="paint58_linear_175_198" x1="947.5" y1="96" x2="947.5" y2="394.818" gradientUnits="userSpaceOnUse">
<stop stop-color="#F7DD43"/>
<stop offset="1" stop-color="#F7DD43" stop-opacity="0"/>
</linearGradient>
<linearGradient id="paint59_linear_175_198" x1="947.5" y1="96" x2="947.5" y2="394.818" gradientUnits="userSpaceOnUse">
<stop stop-color="#F7DD43"/>
<stop offset="1" stop-color="#F7DD43" stop-opacity="0"/>
</linearGradient>
<linearGradient id="paint60_linear_175_198" x1="947.5" y1="96" x2="947.5" y2="394.818" gradientUnits="userSpaceOnUse">
<stop stop-color="#F7DD43"/>
<stop offset="1" stop-color="#F7DD43" stop-opacity="0"/>
</linearGradient>
<linearGradient id="paint61_linear_175_198" x1="947.5" y1="96" x2="947.5" y2="394.818" gradientUnits="userSpaceOnUse">
<stop stop-color="#F7DD43"/>
<stop offset="1" stop-color="#F7DD43" stop-opacity="0"/>
</linearGradient>
<linearGradient id="paint62_linear_175_198" x1="947.5" y1="96" x2="947.5" y2="394.818" gradientUnits="userSpaceOnUse">
<stop stop-color="#F7DD43"/>
<stop offset="1" stop-color="#F7DD43" stop-opacity="0"/>
</linearGradient>
<linearGradient id="paint63_linear_175_198" x1="947.5" y1="96" x2="947.5" y2="394.818" gradientUnits="userSpaceOnUse">
<stop stop-color="#F7DD43"/>
<stop offset="1" stop-color="#F7DD43" stop-opacity="0"/>
</linearGradient>
<linearGradient id="paint64_linear_175_198" x1="947.5" y1="96" x2="947.5" y2="394.818" gradientUnits="userSpaceOnUse">
<stop stop-color="#F7DD43"/>
<stop offset="1" stop-color="#F7DD43" stop-opacity="0"/>
</linearGradient>
<linearGradient id="paint65_linear_175_198" x1="947.5" y1="96" x2="947.5" y2="394.818" gradientUnits="userSpaceOnUse">
<stop stop-color="#F7DD43"/>
<stop offset="1" stop-color="#F7DD43" stop-opacity="0"/>
</linearGradient>
<linearGradient id="paint66_linear_175_198" x1="947.5" y1="96" x2="947.5" y2="394.818" gradientUnits="userSpaceOnUse">
<stop stop-color="#F7DD43"/>
<stop offset="1" stop-color="#F7DD43" stop-opacity="0"/>
</linearGradient>
<linearGradient id="paint67_linear_175_198" x1="947.5" y1="96" x2="947.5" y2="394.818" gradientUnits="userSpaceOnUse">
<stop stop-color="#F7DD43"/>
<stop offset="1" stop-color="#F7DD43" stop-opacity="0"/>
</linearGradient>
<linearGradient id="paint68_linear_175_198" x1="947.5" y1="96" x2="947.5" y2="394.818" gradientUnits="userSpaceOnUse">
<stop stop-color="#F7DD43"/>
<stop offset="1" stop-color="#F7DD43" stop-opacity="0"/>
</linearGradient>
<linearGradient id="paint69_linear_175_198" x1="947.5" y1="96" x2="947.5" y2="394.818" gradientUnits="userSpaceOnUse">
<stop stop-color="#F7DD43"/>
<stop offset="1" stop-color="#F7DD43" stop-opacity="0"/>
</linearGradient>
<linearGradient id="paint70_linear_175_198" x1="947.5" y1="96" x2="947.5" y2="394.818" gradientUnits="userSpaceOnUse">
<stop stop-color="#F7DD43"/>
<stop offset="1" stop-color="#F7DD43" stop-opacity="0"/>
</linearGradient>
<linearGradient id="paint71_linear_175_198" x1="947.5" y1="96" x2="947.5" y2="394.818" gradientUnits="userSpaceOnUse">
<stop stop-color="#F7DD43"/>
<stop offset="1" stop-color="#F7DD43" stop-opacity="0"/>
</linearGradient>
<linearGradient id="paint72_linear_175_198" x1="947.5" y1="96" x2="947.5" y2="394.818" gradientUnits="userSpaceOnUse">
<stop stop-color="#F7DD43"/>
<stop offset="1" stop-color="#F7DD43" stop-opacity="0"/>
</linearGradient>
<linearGradient id="paint73_linear_175_198" x1="947.5" y1="96" x2="947.5" y2="394.818" gradientUnits="userSpaceOnUse">
<stop stop-color="#F7DD43"/>
<stop offset="1" stop-color="#F7DD43" stop-opacity="0"/>
</linearGradient>
<linearGradient id="paint74_linear_175_198" x1="947.5" y1="96" x2="947.5" y2="394.818" gradientUnits="userSpaceOnUse">
<stop stop-color="#F7DD43"/>
<stop offset="1" stop-color="#F7DD43" stop-opacity="0"/>
</linearGradient>
<linearGradient id="paint75_linear_175_198" x1="947.5" y1="96" x2="947.5" y2="394.818" gradientUnits="userSpaceOnUse">
<stop stop-color="#F7DD43"/>
<stop offset="1" stop-color="#F7DD43" stop-opacity="0"/>
</linearGradient>
<linearGradient id="paint76_linear_175_198" x1="947.5" y1="96" x2="947.5" y2="394.818" gradientUnits="userSpaceOnUse">
<stop stop-color="#F7DD43"/>
<stop offset="1" stop-color="#F7DD43" stop-opacity="0"/>
</linearGradient>
<linearGradient id="paint77_linear_175_198" x1="947.5" y1="96" x2="947.5" y2="394.818" gradientUnits="userSpaceOnUse">
<stop stop-color="#F7DD43"/>
<stop offset="1" stop-color="#F7DD43" stop-opacity="0"/>
</linearGradient>
<linearGradient id="paint78_linear_175_198" x1="947.5" y1="96" x2="947.5" y2="394.818" gradientUnits="userSpaceOnUse">
<stop stop-color="#F7DD43"/>
<stop offset="1" stop-color="#F7DD43" stop-opacity="0"/>
</linearGradient>
<linearGradient id="paint79_linear_175_198" x1="947.5" y1="96" x2="947.5" y2="394.818" gradientUnits="userSpaceOnUse">
<stop stop-color="#F7DD43"/>
<stop offset="1" stop-color="#F7DD43" stop-opacity="0"/>
</linearGradient>
<linearGradient id="paint80_linear_175_198" x1="947.5" y1="96" x2="947.5" y2="394.818" gradientUnits="userSpaceOnUse">
<stop stop-color="#F7DD43"/>
<stop offset="1" stop-color="#F7DD43" stop-opacity="0"/>
</linearGradient>
<linearGradient id="paint81_linear_175_198" x1="947.5" y1="96" x2="947.5" y2="394.818" gradientUnits="userSpaceOnUse">
<stop stop-color="#F7DD43"/>
<stop offset="1" stop-color="#F7DD43" stop-opacity="0"/>
</linearGradient>
<linearGradient id="paint82_linear_175_198" x1="947.5" y1="96" x2="947.5" y2="394.818" gradientUnits="userSpaceOnUse">
<stop stop-color="#F7DD43"/>
<stop offset="1" stop-color="#F7DD43" stop-opacity="0"/>
</linearGradient>
<linearGradient id="paint83_linear_175_198" x1="947.5" y1="96" x2="947.5" y2="394.818" gradientUnits="userSpaceOnUse">
<stop stop-color="#F7DD43"/>
<stop offset="1" stop-color="#F7DD43" stop-opacity="0"/>
</linearGradient>
<linearGradient id="paint84_linear_175_198" x1="947.5" y1="96" x2="947.5" y2="394.818" gradientUnits="userSpaceOnUse">
<stop stop-color="#F7DD43"/>
<stop offset="1" stop-color="#F7DD43" stop-opacity="0"/>
</linearGradient>
<linearGradient id="paint85_linear_175_198" x1="947.5" y1="96" x2="947.5" y2="394.818" gradientUnits="userSpaceOnUse">
<stop stop-color="#F7DD43"/>
<stop offset="1" stop-color="#F7DD43" stop-opacity="0"/>
</linearGradient>
<linearGradient id="paint86_linear_175_198" x1="947.5" y1="96" x2="947.5" y2="394.818" gradientUnits="userSpaceOnUse">
<stop stop-color="#F7DD43"/>
<stop offset="1" stop-color="#F7DD43" stop-opacity="0"/>
</linearGradient>
<linearGradient id="paint87_linear_175_198" x1="947.5" y1="96" x2="947.5" y2="394.818" gradientUnits="userSpaceOnUse">
<stop stop-color="#F7DD43"/>
<stop offset="1" stop-color="#F7DD43" stop-opacity="0"/>
</linearGradient>
<linearGradient id="paint88_linear_175_198" x1="947.5" y1="96" x2="947.5" y2="394.818" gradientUnits="userSpaceOnUse">
<stop stop-color="#F7DD43"/>
<stop offset="1" stop-color="#F7DD43" stop-opacity="0"/>
</linearGradient>
<linearGradient id="paint89_linear_175_198" x1="947.5" y1="96" x2="947.5" y2="394.818" gradientUnits="userSpaceOnUse">
<stop stop-color="#F7DD43"/>
<stop offset="1" stop-color="#F7DD43" stop-opacity="0"/>
</linearGradient>
<linearGradient id="paint90_linear_175_198" x1="947.5" y1="96" x2="947.5" y2="394.818" gradientUnits="userSpaceOnUse">
<stop stop-color="#F7DD43"/>
<stop offset="1" stop-color="#F7DD43" stop-opacity="0"/>
</linearGradient>
<linearGradient id="paint91_linear_175_198" x1="947.5" y1="96" x2="947.5" y2="394.818" gradientUnits="userSpaceOnUse">
<stop stop-color="#F7DD43"/>
<stop offset="1" stop-color="#F7DD43" stop-opacity="0"/>
</linearGradient>
<linearGradient id="paint92_linear_175_198" x1="947.5" y1="96" x2="947.5" y2="394.818" gradientUnits="userSpaceOnUse">
<stop stop-color="#F7DD43"/>
<stop offset="1" stop-color="#F7DD43" stop-opacity="0"/>
</linearGradient>
<linearGradient id="paint93_linear_175_198" x1="947.5" y1="96" x2="947.5" y2="394.818" gradientUnits="userSpaceOnUse">
<stop stop-color="#F7DD43"/>
<stop offset="1" stop-color="#F7DD43" stop-opacity="0"/>
</linearGradient>
</defs>
</svg>
